<mxfile host="app.diagrams.net" modified="2021-12-13T19:33:21.789Z" agent="5.0 (Windows NT 10.0; Win64; x64) AppleWebKit/537.36 (KHTML, like Gecko) Chrome/96.0.4664.93 Safari/537.36" etag="O39dPWEUoK3MTRDEE_Cc" version="15.6.8" type="github">
  <diagram id="ZgDnklnv8hs0AD4zhIGA" name="Page-1">
    <mxGraphModel dx="1221" dy="681" grid="1" gridSize="10" guides="1" tooltips="1" connect="1" arrows="1" fold="1" page="0" pageScale="1" pageWidth="1100" pageHeight="850" background="none" math="0" shadow="0">
      <root>
        <mxCell id="0" />
        <mxCell id="1" parent="0" />
        <mxCell id="tGK0brASN7LOrKUB66ZN-69" style="edgeStyle=orthogonalEdgeStyle;rounded=0;orthogonalLoop=1;jettySize=auto;html=1;exitX=0.75;exitY=0;exitDx=0;exitDy=0;entryX=0.75;entryY=1;entryDx=0;entryDy=0;fontFamily=Work Sans;fontSource=https%3A%2F%2Ffonts.googleapis.com%2Fcss%3Ffamily%3DWork%2BSans;fontSize=20;fontColor=#0F0900;startArrow=none;startFill=0;" parent="1" source="tGK0brASN7LOrKUB66ZN-61" target="tGK0brASN7LOrKUB66ZN-47" edge="1">
          <mxGeometry relative="1" as="geometry">
            <Array as="points">
              <mxPoint x="413" y="450" />
              <mxPoint x="475" y="450" />
            </Array>
          </mxGeometry>
        </mxCell>
        <mxCell id="tGK0brASN7LOrKUB66ZN-75" style="edgeStyle=orthogonalEdgeStyle;rounded=0;orthogonalLoop=1;jettySize=auto;html=1;exitX=0.25;exitY=0;exitDx=0;exitDy=0;entryX=0.25;entryY=1;entryDx=0;entryDy=0;fontFamily=Work Sans;fontSource=https%3A%2F%2Ffonts.googleapis.com%2Fcss%3Ffamily%3DWork%2BSans;fontSize=20;fontColor=#0F0900;startArrow=classic;startFill=1;endArrow=none;endFill=0;" parent="1" source="tGK0brASN7LOrKUB66ZN-61" target="tGK0brASN7LOrKUB66ZN-47" edge="1">
          <mxGeometry relative="1" as="geometry">
            <Array as="points">
              <mxPoint x="318" y="450" />
              <mxPoint x="365" y="450" />
            </Array>
          </mxGeometry>
        </mxCell>
        <mxCell id="tGK0brASN7LOrKUB66ZN-87" style="edgeStyle=orthogonalEdgeStyle;rounded=0;orthogonalLoop=1;jettySize=auto;html=1;exitX=0.25;exitY=1;exitDx=0;exitDy=0;entryX=1;entryY=0.5;entryDx=0;entryDy=0;fontFamily=Work Sans;fontSource=https%3A%2F%2Ffonts.googleapis.com%2Fcss%3Ffamily%3DWork%2BSans;fontSize=14;fontColor=#0F0900;startArrow=none;startFill=0;endArrow=classic;endFill=1;" parent="1" source="tGK0brASN7LOrKUB66ZN-61" target="tGK0brASN7LOrKUB66ZN-86" edge="1">
          <mxGeometry relative="1" as="geometry" />
        </mxCell>
        <mxCell id="tGK0brASN7LOrKUB66ZN-61" value="wunderDB" style="rounded=0;whiteSpace=wrap;html=1;fontFamily=Work Sans;fontSource=https%3A%2F%2Ffonts.googleapis.com%2Fcss%3Ffamily%3DWork%2BSans;fontSize=20;align=center;verticalAlign=middle;fillColor=#fff2cc;strokeColor=#d6b656;" parent="1" vertex="1">
          <mxGeometry x="270" y="560" width="190" height="50" as="geometry" />
        </mxCell>
        <mxCell id="tGK0brASN7LOrKUB66ZN-92" style="edgeStyle=orthogonalEdgeStyle;rounded=0;orthogonalLoop=1;jettySize=auto;html=1;exitX=0.75;exitY=1;exitDx=0;exitDy=0;entryX=0;entryY=0.25;entryDx=0;entryDy=0;fontFamily=Work Sans;fontSource=https%3A%2F%2Ffonts.googleapis.com%2Fcss%3Ffamily%3DWork%2BSans;fontSize=18;fontColor=#0F0900;startArrow=none;startFill=0;endArrow=classic;endFill=1;" parent="1" source="tGK0brASN7LOrKUB66ZN-62" target="tGK0brASN7LOrKUB66ZN-90" edge="1">
          <mxGeometry relative="1" as="geometry" />
        </mxCell>
        <mxCell id="tGK0brASN7LOrKUB66ZN-62" value="Placeholders&lt;span style=&quot;color: rgba(0 , 0 , 0 , 0) ; font-family: monospace ; font-size: 0px&quot;&gt;%3CmxGraphModel%3E%3Croot%3E%3CmxCell%20id%3D%220%22%2F%3E%3CmxCell%20id%3D%221%22%20parent%3D%220%22%2F%3E%3CmxCell%20id%3D%222%22%20value%3D%22wunderDB%22%20style%3D%22rounded%3D0%3BwhiteSpace%3Dwrap%3Bhtml%3D1%3BfontFamily%3DWork%20Sans%3BfontSource%3Dhttps%253A%252F%252Ffonts.googleapis.com%252Fcss%253Ffamily%253DWork%252BSans%3BfontSize%3D20%3BfontColor%3D%230F0900%3Balign%3Dcenter%3BverticalAlign%3Dmiddle%3B%22%20vertex%3D%221%22%20parent%3D%221%22%3E%3CmxGeometry%20x%3D%22160%22%20y%3D%22600%22%20width%3D%22160%22%20height%3D%2260%22%20as%3D%22geometry%22%2F%3E%3C%2FmxCell%3E%3C%2Froot%3E%3C%2FmxGraphModel%3E&lt;/span&gt;" style="rounded=0;whiteSpace=wrap;html=1;fontFamily=Work Sans;fontSource=https%3A%2F%2Ffonts.googleapis.com%2Fcss%3Ffamily%3DWork%2BSans;fontSize=20;align=center;verticalAlign=middle;fillColor=#dae8fc;strokeColor=#6c8ebf;" parent="1" vertex="1">
          <mxGeometry x="470" y="644.5" width="190" height="60" as="geometry" />
        </mxCell>
        <mxCell id="tGK0brASN7LOrKUB66ZN-127" style="edgeStyle=orthogonalEdgeStyle;rounded=0;orthogonalLoop=1;jettySize=auto;html=1;exitX=1;exitY=0.25;exitDx=0;exitDy=0;entryX=0.25;entryY=1;entryDx=0;entryDy=0;fontFamily=Work Sans;fontSource=https%3A%2F%2Ffonts.googleapis.com%2Fcss%3Ffamily%3DWork%2BSans;fontSize=19;fontColor=#0F0900;startArrow=classic;startFill=1;endArrow=none;endFill=0;" parent="1" source="tGK0brASN7LOrKUB66ZN-63" target="tGK0brASN7LOrKUB66ZN-93" edge="1">
          <mxGeometry relative="1" as="geometry" />
        </mxCell>
        <mxCell id="tGK0brASN7LOrKUB66ZN-128" style="edgeStyle=orthogonalEdgeStyle;rounded=0;orthogonalLoop=1;jettySize=auto;html=1;exitX=0.75;exitY=1;exitDx=0;exitDy=0;entryX=1;entryY=0.75;entryDx=0;entryDy=0;fontFamily=Work Sans;fontSource=https%3A%2F%2Ffonts.googleapis.com%2Fcss%3Ffamily%3DWork%2BSans;fontSize=19;fontColor=#0F0900;startArrow=classic;startFill=1;endArrow=none;endFill=0;" parent="1" source="tGK0brASN7LOrKUB66ZN-93" target="tGK0brASN7LOrKUB66ZN-63" edge="1">
          <mxGeometry relative="1" as="geometry" />
        </mxCell>
        <mxCell id="tGK0brASN7LOrKUB66ZN-131" style="edgeStyle=orthogonalEdgeStyle;rounded=0;orthogonalLoop=1;jettySize=auto;html=1;exitX=0.75;exitY=1;exitDx=0;exitDy=0;entryX=0.5;entryY=0;entryDx=0;entryDy=0;fontFamily=Work Sans;fontSource=https%3A%2F%2Ffonts.googleapis.com%2Fcss%3Ffamily%3DWork%2BSans;fontSize=19;fontColor=#0F0900;startArrow=classic;startFill=1;endArrow=none;endFill=0;" parent="1" source="tGK0brASN7LOrKUB66ZN-63" target="tGK0brASN7LOrKUB66ZN-121" edge="1">
          <mxGeometry relative="1" as="geometry">
            <Array as="points">
              <mxPoint x="910" y="680" />
              <mxPoint x="1030" y="680" />
            </Array>
          </mxGeometry>
        </mxCell>
        <mxCell id="tGK0brASN7LOrKUB66ZN-63" value="wunder Service X" style="rounded=0;whiteSpace=wrap;html=1;fontFamily=Work Sans;fontSource=https%3A%2F%2Ffonts.googleapis.com%2Fcss%3Ffamily%3DWork%2BSans;fontSize=20;align=center;verticalAlign=middle;fillColor=#f8cecc;strokeColor=#b85450;" parent="1" vertex="1">
          <mxGeometry x="760" y="560" width="200" height="60" as="geometry" />
        </mxCell>
        <mxCell id="tGK0brASN7LOrKUB66ZN-76" value="Token" style="text;html=1;strokeColor=none;fillColor=none;align=center;verticalAlign=middle;whiteSpace=wrap;rounded=0;fontFamily=Work Sans;fontSource=https%3A%2F%2Ffonts.googleapis.com%2Fcss%3Ffamily%3DWork%2BSans;fontSize=14;fontColor=#0F0900;rotation=0;direction=east;horizontal=0;fontStyle=0" parent="1" vertex="1">
          <mxGeometry x="287" y="460" width="30" height="80" as="geometry" />
        </mxCell>
        <mxCell id="tGK0brASN7LOrKUB66ZN-78" value="" style="group" parent="1" vertex="1" connectable="0">
          <mxGeometry x="310" y="70" width="630" height="340" as="geometry" />
        </mxCell>
        <mxCell id="tGK0brASN7LOrKUB66ZN-58" value="" style="rounded=0;whiteSpace=wrap;html=1;fontFamily=Work Sans;fontSource=https%3A%2F%2Ffonts.googleapis.com%2Fcss%3Ffamily%3DWork%2BSans;fontSize=18;align=center;verticalAlign=middle;fillColor=#f5f5f5;fontColor=#333333;strokeColor=#666666;" parent="tGK0brASN7LOrKUB66ZN-78" vertex="1">
          <mxGeometry width="630" height="340" as="geometry" />
        </mxCell>
        <mxCell id="tGK0brASN7LOrKUB66ZN-28" value="" style="group" parent="tGK0brASN7LOrKUB66ZN-78" vertex="1" connectable="0">
          <mxGeometry x="70" y="56" width="505" height="100" as="geometry" />
        </mxCell>
        <mxCell id="tGK0brASN7LOrKUB66ZN-2" value="Profiles" style="shape=cube;whiteSpace=wrap;html=1;boundedLbl=1;backgroundOutline=1;darkOpacity=0.05;darkOpacity2=0.1;fontFamily=Work Sans;fontSource=https%3A%2F%2Ffonts.googleapis.com%2Fcss%3Ffamily%3DWork%2BSans;fontSize=18;size=10;fillColor=#f8cecc;strokeColor=#b85450;" parent="tGK0brASN7LOrKUB66ZN-28" vertex="1">
          <mxGeometry y="43.956043956043956" width="500.00000000000006" height="54.94505494505494" as="geometry" />
        </mxCell>
        <mxCell id="tGK0brASN7LOrKUB66ZN-77" value="Tokens" style="shape=cube;whiteSpace=wrap;html=1;boundedLbl=1;backgroundOutline=1;darkOpacity=0.05;darkOpacity2=0.1;fontFamily=Work Sans;fontSource=https%3A%2F%2Ffonts.googleapis.com%2Fcss%3Ffamily%3DWork%2BSans;fontSize=18;size=10;fillColor=#d5e8d4;strokeColor=#82b366;" parent="tGK0brASN7LOrKUB66ZN-28" vertex="1">
          <mxGeometry x="330" width="170" height="54.95" as="geometry" />
        </mxCell>
        <mxCell id="tGK0brASN7LOrKUB66ZN-26" value="Credentials" style="shape=cube;whiteSpace=wrap;html=1;boundedLbl=1;backgroundOutline=1;darkOpacity=0.05;darkOpacity2=0.1;fontFamily=Work Sans;fontSource=https%3A%2F%2Ffonts.googleapis.com%2Fcss%3Ffamily%3DWork%2BSans;fontSize=18;size=10;fillColor=#e1d5e7;strokeColor=#9673a6;" parent="tGK0brASN7LOrKUB66ZN-28" vertex="1">
          <mxGeometry x="83.34" width="256.66" height="54.95" as="geometry" />
        </mxCell>
        <mxCell id="tGK0brASN7LOrKUB66ZN-25" value="uID" style="shape=cube;whiteSpace=wrap;html=1;boundedLbl=1;backgroundOutline=1;darkOpacity=0.05;darkOpacity2=0.1;fontFamily=Work Sans;fontSource=https%3A%2F%2Ffonts.googleapis.com%2Fcss%3Ffamily%3DWork%2BSans;fontSize=18;size=10;fillColor=#dae8fc;strokeColor=#6c8ebf;" parent="tGK0brASN7LOrKUB66ZN-28" vertex="1">
          <mxGeometry width="100" height="54.95" as="geometry" />
        </mxCell>
        <mxCell id="tGK0brASN7LOrKUB66ZN-59" value="wunder &lt;b&gt;Identity Provider&lt;/b&gt;" style="text;html=1;strokeColor=none;fillColor=none;align=center;verticalAlign=middle;whiteSpace=wrap;rounded=0;fontFamily=Work Sans;fontSource=https%3A%2F%2Ffonts.googleapis.com%2Fcss%3Ffamily%3DWork%2BSans;fontSize=20;fontColor=#0F0900;fontStyle=0" parent="tGK0brASN7LOrKUB66ZN-78" vertex="1">
          <mxGeometry x="170" y="13" width="290" height="30" as="geometry" />
        </mxCell>
        <mxCell id="tGK0brASN7LOrKUB66ZN-67" value="" style="group" parent="tGK0brASN7LOrKUB66ZN-78" vertex="1" connectable="0">
          <mxGeometry x="0.19999999999998863" y="175" width="629.6" height="165" as="geometry" />
        </mxCell>
        <mxCell id="tGK0brASN7LOrKUB66ZN-65" value="" style="group" parent="tGK0brASN7LOrKUB66ZN-67" vertex="1" connectable="0">
          <mxGeometry x="219.60000000000002" width="410" height="165" as="geometry" />
        </mxCell>
        <mxCell id="tGK0brASN7LOrKUB66ZN-31" value="" style="rounded=0;whiteSpace=wrap;html=1;fontFamily=Work Sans;fontSource=https%3A%2F%2Ffonts.googleapis.com%2Fcss%3Ffamily%3DWork%2BSans;fontSize=18;align=center;verticalAlign=middle;fillColor=#dae8fc;strokeColor=#6c8ebf;" parent="tGK0brASN7LOrKUB66ZN-65" vertex="1">
          <mxGeometry width="410" height="165" as="geometry" />
        </mxCell>
        <mxCell id="tGK0brASN7LOrKUB66ZN-1" value="&lt;font style=&quot;font-size: 18px&quot;&gt;&lt;b&gt;uID &lt;/b&gt;Generator&lt;/font&gt;" style="rounded=1;whiteSpace=wrap;html=1;fontSize=13;fontFamily=Work Sans;fontSource=https%3A%2F%2Ffonts.googleapis.com%2Fcss%3Ffamily%3DWork%2BSans;fillColor=#fff2cc;strokeColor=#d6b656;arcSize=0;" parent="tGK0brASN7LOrKUB66ZN-65" vertex="1">
          <mxGeometry x="18.680000000000064" y="20" width="210.66" height="41.03" as="geometry" />
        </mxCell>
        <mxCell id="tGK0brASN7LOrKUB66ZN-34" value="&lt;span&gt;Credential Processor&lt;/span&gt;" style="rounded=0;whiteSpace=wrap;html=1;fontFamily=Work Sans;fontSource=https%3A%2F%2Ffonts.googleapis.com%2Fcss%3Ffamily%3DWork%2BSans;fontSize=18;align=center;verticalAlign=middle;fillColor=#fff2cc;strokeColor=#d6b656;fontStyle=0" parent="tGK0brASN7LOrKUB66ZN-65" vertex="1">
          <mxGeometry x="18.680000000000064" y="78.83999999999997" width="210" height="41.03" as="geometry" />
        </mxCell>
        <mxCell id="tGK0brASN7LOrKUB66ZN-36" value="Identity Provider" style="text;html=1;strokeColor=none;fillColor=none;align=center;verticalAlign=middle;whiteSpace=wrap;rounded=0;fontFamily=Work Sans;fontSource=https%3A%2F%2Ffonts.googleapis.com%2Fcss%3Ffamily%3DWork%2BSans;fontSize=18;fontColor=#0F0900;fontStyle=1" parent="tGK0brASN7LOrKUB66ZN-65" vertex="1">
          <mxGeometry x="19.34" y="128.49" width="371.32" height="22.51" as="geometry" />
        </mxCell>
        <mxCell id="tGK0brASN7LOrKUB66ZN-64" value="&lt;span&gt;&lt;b&gt;OTP&lt;br&gt;&lt;/b&gt;Generation &amp;amp; Verification&lt;br&gt;&lt;/span&gt;" style="rounded=0;whiteSpace=wrap;html=1;fontFamily=Work Sans;fontSource=https%3A%2F%2Ffonts.googleapis.com%2Fcss%3Ffamily%3DWork%2BSans;fontSize=18;align=center;verticalAlign=middle;fillColor=#fff2cc;strokeColor=#d6b656;fontStyle=0" parent="tGK0brASN7LOrKUB66ZN-65" vertex="1">
          <mxGeometry x="249" y="20" width="140.66" height="99.87" as="geometry" />
        </mxCell>
        <mxCell id="tGK0brASN7LOrKUB66ZN-66" value="" style="group" parent="tGK0brASN7LOrKUB66ZN-67" vertex="1" connectable="0">
          <mxGeometry width="220" height="165" as="geometry" />
        </mxCell>
        <mxCell id="tGK0brASN7LOrKUB66ZN-47" value="" style="rounded=0;whiteSpace=wrap;html=1;fontFamily=Work Sans;fontSource=https%3A%2F%2Ffonts.googleapis.com%2Fcss%3Ffamily%3DWork%2BSans;fontSize=18;align=center;verticalAlign=middle;fillColor=#d5e8d4;strokeColor=#82b366;" parent="tGK0brASN7LOrKUB66ZN-66" vertex="1">
          <mxGeometry width="220" height="165" as="geometry" />
        </mxCell>
        <mxCell id="tGK0brASN7LOrKUB66ZN-49" value="&lt;span&gt;Credential&amp;nbsp;&lt;br&gt;Verification&lt;br&gt;&lt;/span&gt;" style="rounded=0;whiteSpace=wrap;html=1;fontFamily=Work Sans;fontSource=https%3A%2F%2Ffonts.googleapis.com%2Fcss%3Ffamily%3DWork%2BSans;fontSize=18;align=center;verticalAlign=middle;fillColor=#fff2cc;strokeColor=#d6b656;fontStyle=0" parent="tGK0brASN7LOrKUB66ZN-66" vertex="1">
          <mxGeometry x="20.400000000000034" y="20" width="179.2" height="100" as="geometry" />
        </mxCell>
        <mxCell id="tGK0brASN7LOrKUB66ZN-50" value="ID Authentication" style="text;html=1;strokeColor=none;fillColor=none;align=center;verticalAlign=middle;whiteSpace=wrap;rounded=0;fontFamily=Work Sans;fontSource=https%3A%2F%2Ffonts.googleapis.com%2Fcss%3Ffamily%3DWork%2BSans;fontSize=18;fontColor=#0F0900;fontStyle=1" parent="tGK0brASN7LOrKUB66ZN-66" vertex="1">
          <mxGeometry x="18.88" y="128.49" width="182.24" height="22.51" as="geometry" />
        </mxCell>
        <mxCell id="tGK0brASN7LOrKUB66ZN-79" value="Credentials" style="text;html=1;strokeColor=none;fillColor=none;align=center;verticalAlign=middle;whiteSpace=wrap;rounded=0;fontFamily=Work Sans;fontSource=https%3A%2F%2Ffonts.googleapis.com%2Fcss%3Ffamily%3DWork%2BSans;fontSize=14;fontColor=#0F0900;rotation=-180;direction=west;horizontal=0;fontStyle=0;" parent="1" vertex="1">
          <mxGeometry x="413" y="458" width="30" height="76" as="geometry" />
        </mxCell>
        <mxCell id="tGK0brASN7LOrKUB66ZN-80" value="Credentials" style="text;html=1;strokeColor=none;fillColor=none;align=left;verticalAlign=middle;whiteSpace=wrap;rounded=0;fontFamily=Work Sans;fontSource=https%3A%2F%2Ffonts.googleapis.com%2Fcss%3Ffamily%3DWork%2BSans;fontSize=14;fontColor=#0F0900;rotation=90;direction=west;horizontal=0;fontStyle=0;" parent="1" vertex="1">
          <mxGeometry x="554" y="446" width="30" height="100" as="geometry" />
        </mxCell>
        <mxCell id="tGK0brASN7LOrKUB66ZN-81" value="Token" style="text;html=1;strokeColor=none;fillColor=none;align=center;verticalAlign=middle;whiteSpace=wrap;rounded=0;fontFamily=Work Sans;fontSource=https%3A%2F%2Ffonts.googleapis.com%2Fcss%3Ffamily%3DWork%2BSans;fontSize=14;fontColor=#0F0900;rotation=-180;direction=east;horizontal=0;fontStyle=0" parent="1" vertex="1">
          <mxGeometry x="734" y="446" width="30" height="59" as="geometry" />
        </mxCell>
        <mxCell id="tGK0brASN7LOrKUB66ZN-84" value="Token" style="text;html=1;strokeColor=none;fillColor=none;align=center;verticalAlign=middle;whiteSpace=wrap;rounded=0;fontFamily=Work Sans;fontSource=https%3A%2F%2Ffonts.googleapis.com%2Fcss%3Ffamily%3DWork%2BSans;fontSize=14;fontColor=#0F0900;rotation=-180;direction=east;horizontal=0;fontStyle=0" parent="1" vertex="1">
          <mxGeometry x="809" y="492" width="30" height="59" as="geometry" />
        </mxCell>
        <mxCell id="tGK0brASN7LOrKUB66ZN-85" value="Credentials" style="text;html=1;strokeColor=none;fillColor=none;align=center;verticalAlign=middle;whiteSpace=wrap;rounded=0;fontFamily=Work Sans;fontSource=https%3A%2F%2Ffonts.googleapis.com%2Fcss%3Ffamily%3DWork%2BSans;fontSize=14;fontColor=#0F0900;rotation=-180;direction=west;horizontal=0;fontStyle=0;" parent="1" vertex="1">
          <mxGeometry x="914" y="462" width="30" height="84" as="geometry" />
        </mxCell>
        <mxCell id="tGK0brASN7LOrKUB66ZN-89" style="edgeStyle=orthogonalEdgeStyle;rounded=0;orthogonalLoop=1;jettySize=auto;html=1;exitX=0.5;exitY=0;exitDx=0;exitDy=0;entryX=0;entryY=0.25;entryDx=0;entryDy=0;fontFamily=Work Sans;fontSource=https%3A%2F%2Ffonts.googleapis.com%2Fcss%3Ffamily%3DWork%2BSans;fontSize=14;fontColor=#0F0900;startArrow=none;startFill=0;endArrow=classic;endFill=1;" parent="1" source="tGK0brASN7LOrKUB66ZN-86" target="tGK0brASN7LOrKUB66ZN-61" edge="1">
          <mxGeometry relative="1" as="geometry" />
        </mxCell>
        <mxCell id="tGK0brASN7LOrKUB66ZN-86" value="&lt;font style=&quot;font-size: 18px&quot;&gt;wDB&lt;br&gt;Data&lt;/font&gt;" style="rounded=0;whiteSpace=wrap;html=1;fontFamily=Work Sans;fontSource=https%3A%2F%2Ffonts.googleapis.com%2Fcss%3Ffamily%3DWork%2BSans;fontSize=20;align=center;verticalAlign=middle;fillColor=#f5f5f5;strokeColor=#666666;fontColor=#333333;" parent="1" vertex="1">
          <mxGeometry x="160" y="610" width="90" height="90" as="geometry" />
        </mxCell>
        <mxCell id="tGK0brASN7LOrKUB66ZN-91" style="edgeStyle=orthogonalEdgeStyle;rounded=0;orthogonalLoop=1;jettySize=auto;html=1;exitX=0.5;exitY=0;exitDx=0;exitDy=0;entryX=1;entryY=0.5;entryDx=0;entryDy=0;fontFamily=Work Sans;fontSource=https%3A%2F%2Ffonts.googleapis.com%2Fcss%3Ffamily%3DWork%2BSans;fontSize=18;fontColor=#0F0900;startArrow=none;startFill=0;endArrow=classic;endFill=1;" parent="1" source="tGK0brASN7LOrKUB66ZN-90" target="tGK0brASN7LOrKUB66ZN-62" edge="1">
          <mxGeometry relative="1" as="geometry" />
        </mxCell>
        <mxCell id="tGK0brASN7LOrKUB66ZN-90" value="&lt;span style=&quot;font-size: 18px&quot;&gt;Data &amp;amp;&lt;br&gt;Storage&lt;br&gt;&lt;/span&gt;" style="rounded=0;whiteSpace=wrap;html=1;fontFamily=Work Sans;fontSource=https%3A%2F%2Ffonts.googleapis.com%2Fcss%3Ffamily%3DWork%2BSans;fontSize=20;align=center;verticalAlign=middle;fillColor=#f5f5f5;strokeColor=#666666;fontColor=#333333;" parent="1" vertex="1">
          <mxGeometry x="717" y="732" width="106" height="70" as="geometry" />
        </mxCell>
        <mxCell id="tGK0brASN7LOrKUB66ZN-93" value="&lt;span style=&quot;font-size: 18px&quot;&gt;Data &amp;amp;&lt;br&gt;Storage&lt;br&gt;&lt;/span&gt;" style="rounded=0;whiteSpace=wrap;html=1;fontFamily=Work Sans;fontSource=https%3A%2F%2Ffonts.googleapis.com%2Fcss%3Ffamily%3DWork%2BSans;fontSize=20;align=center;verticalAlign=middle;fillColor=#f5f5f5;strokeColor=#666666;fontColor=#333333;" parent="1" vertex="1">
          <mxGeometry x="984" y="449" width="106" height="70" as="geometry" />
        </mxCell>
        <mxCell id="tGK0brASN7LOrKUB66ZN-98" style="edgeStyle=orthogonalEdgeStyle;rounded=0;orthogonalLoop=1;jettySize=auto;html=1;exitX=0;exitY=0;exitDx=0;exitDy=0;entryX=0.5;entryY=1;entryDx=0;entryDy=0;fontFamily=Work Sans;fontSource=https%3A%2F%2Ffonts.googleapis.com%2Fcss%3Ffamily%3DWork%2BSans;fontSize=18;fontColor=#0F0900;startArrow=none;startFill=0;endArrow=classic;endFill=1;" parent="1" source="tGK0brASN7LOrKUB66ZN-96" target="tGK0brASN7LOrKUB66ZN-61" edge="1">
          <mxGeometry relative="1" as="geometry">
            <Array as="points">
              <mxPoint x="298" y="700" />
              <mxPoint x="365" y="700" />
            </Array>
          </mxGeometry>
        </mxCell>
        <mxCell id="tGK0brASN7LOrKUB66ZN-100" style="edgeStyle=orthogonalEdgeStyle;rounded=0;orthogonalLoop=1;jettySize=auto;html=1;exitX=1;exitY=0;exitDx=0;exitDy=0;entryX=0.75;entryY=1;entryDx=0;entryDy=0;fontFamily=Work Sans;fontSource=https%3A%2F%2Ffonts.googleapis.com%2Fcss%3Ffamily%3DWork%2BSans;fontSize=18;fontColor=#0F0900;startArrow=classic;startFill=1;endArrow=none;endFill=0;" parent="1" source="tGK0brASN7LOrKUB66ZN-96" target="tGK0brASN7LOrKUB66ZN-61" edge="1">
          <mxGeometry relative="1" as="geometry">
            <Array as="points">
              <mxPoint x="382" y="770" />
              <mxPoint x="413" y="770" />
            </Array>
          </mxGeometry>
        </mxCell>
        <mxCell id="tGK0brASN7LOrKUB66ZN-104" value="Credentials" style="text;html=1;strokeColor=none;fillColor=none;align=center;verticalAlign=middle;whiteSpace=wrap;rounded=0;fontFamily=Work Sans;fontSource=https%3A%2F%2Ffonts.googleapis.com%2Fcss%3Ffamily%3DWork%2BSans;fontSize=14;fontColor=#0F0900;rotation=0;direction=west;horizontal=0;fontStyle=0;" parent="1" vertex="1">
          <mxGeometry x="270" y="730" width="30" height="100" as="geometry" />
        </mxCell>
        <mxCell id="tGK0brASN7LOrKUB66ZN-105" value="Token" style="text;html=1;strokeColor=none;fillColor=none;align=center;verticalAlign=middle;whiteSpace=wrap;rounded=0;fontFamily=Work Sans;fontSource=https%3A%2F%2Ffonts.googleapis.com%2Fcss%3Ffamily%3DWork%2BSans;fontSize=14;fontColor=#0F0900;rotation=90;direction=east;horizontal=0;fontStyle=0" parent="1" vertex="1">
          <mxGeometry x="268" y="644" width="30" height="48" as="geometry" />
        </mxCell>
        <mxCell id="tGK0brASN7LOrKUB66ZN-106" value="Data" style="text;html=1;strokeColor=none;fillColor=none;align=center;verticalAlign=middle;whiteSpace=wrap;rounded=0;fontFamily=Work Sans;fontSource=https%3A%2F%2Ffonts.googleapis.com%2Fcss%3Ffamily%3DWork%2BSans;fontSize=14;fontColor=#0F0900;rotation=0;direction=west;horizontal=0;fontStyle=0;" parent="1" vertex="1">
          <mxGeometry x="383" y="720" width="30" height="50" as="geometry" />
        </mxCell>
        <mxCell id="tGK0brASN7LOrKUB66ZN-107" value="Data" style="text;html=1;strokeColor=none;fillColor=none;align=center;verticalAlign=middle;whiteSpace=wrap;rounded=0;fontFamily=Work Sans;fontSource=https%3A%2F%2Ffonts.googleapis.com%2Fcss%3Ffamily%3DWork%2BSans;fontSize=14;fontColor=#0F0900;rotation=90;direction=west;horizontal=0;fontStyle=0;" parent="1" vertex="1">
          <mxGeometry x="206" y="537" width="30" height="50" as="geometry" />
        </mxCell>
        <mxCell id="tGK0brASN7LOrKUB66ZN-108" value="" style="group" parent="1" vertex="1" connectable="0">
          <mxGeometry x="280" y="844.5" width="120" height="120" as="geometry" />
        </mxCell>
        <mxCell id="tGK0brASN7LOrKUB66ZN-96" value="" style="ellipse;whiteSpace=wrap;html=1;aspect=fixed;fontFamily=Work Sans;fontSource=https%3A%2F%2Ffonts.googleapis.com%2Fcss%3Ffamily%3DWork%2BSans;fontSize=18;align=center;verticalAlign=middle;fillColor=#f8cecc;strokeColor=#b85450;" parent="tGK0brASN7LOrKUB66ZN-108" vertex="1">
          <mxGeometry width="120" height="120" as="geometry" />
        </mxCell>
        <mxCell id="tGK0brASN7LOrKUB66ZN-97" value="" style="sketch=0;outlineConnect=0;fontColor=#232F3E;gradientColor=none;fillColor=#232F3E;strokeColor=none;dashed=0;verticalLabelPosition=bottom;verticalAlign=top;align=center;html=1;fontSize=12;fontStyle=0;aspect=fixed;pointerEvents=1;shape=mxgraph.aws4.user;fontFamily=Work Sans;fontSource=https%3A%2F%2Ffonts.googleapis.com%2Fcss%3Ffamily%3DWork%2BSans;" parent="tGK0brASN7LOrKUB66ZN-108" vertex="1">
          <mxGeometry x="42.75" y="25.5" width="34.5" height="34.5" as="geometry" />
        </mxCell>
        <mxCell id="tGK0brASN7LOrKUB66ZN-102" value="User" style="text;html=1;strokeColor=none;fillColor=none;align=center;verticalAlign=middle;whiteSpace=wrap;rounded=0;fontFamily=Work Sans;fontSource=https%3A%2F%2Ffonts.googleapis.com%2Fcss%3Ffamily%3DWork%2BSans;fontSize=19;fontColor=#0F0900;fontStyle=1" parent="tGK0brASN7LOrKUB66ZN-108" vertex="1">
          <mxGeometry x="30" y="62.5" width="60" height="30" as="geometry" />
        </mxCell>
        <mxCell id="tGK0brASN7LOrKUB66ZN-109" value="" style="group" parent="1" vertex="1" connectable="0">
          <mxGeometry x="470" y="860" width="120" height="120" as="geometry" />
        </mxCell>
        <mxCell id="tGK0brASN7LOrKUB66ZN-110" value="" style="ellipse;whiteSpace=wrap;html=1;aspect=fixed;fontFamily=Work Sans;fontSource=https%3A%2F%2Ffonts.googleapis.com%2Fcss%3Ffamily%3DWork%2BSans;fontSize=18;align=center;verticalAlign=middle;fillColor=#e1d5e7;strokeColor=#9673a6;" parent="tGK0brASN7LOrKUB66ZN-109" vertex="1">
          <mxGeometry width="120" height="120" as="geometry" />
        </mxCell>
        <mxCell id="tGK0brASN7LOrKUB66ZN-111" value="" style="sketch=0;outlineConnect=0;fontColor=#232F3E;gradientColor=none;fillColor=#232F3E;strokeColor=none;dashed=0;verticalLabelPosition=bottom;verticalAlign=top;align=center;html=1;fontSize=12;fontStyle=0;aspect=fixed;pointerEvents=1;shape=mxgraph.aws4.user;fontFamily=Work Sans;fontSource=https%3A%2F%2Ffonts.googleapis.com%2Fcss%3Ffamily%3DWork%2BSans;" parent="tGK0brASN7LOrKUB66ZN-109" vertex="1">
          <mxGeometry x="42.75" y="25.5" width="34.5" height="34.5" as="geometry" />
        </mxCell>
        <mxCell id="tGK0brASN7LOrKUB66ZN-112" value="User" style="text;html=1;strokeColor=none;fillColor=none;align=center;verticalAlign=middle;whiteSpace=wrap;rounded=0;fontFamily=Work Sans;fontSource=https%3A%2F%2Ffonts.googleapis.com%2Fcss%3Ffamily%3DWork%2BSans;fontSize=19;fontColor=#0F0900;fontStyle=1" parent="tGK0brASN7LOrKUB66ZN-109" vertex="1">
          <mxGeometry x="30" y="62.5" width="60" height="30" as="geometry" />
        </mxCell>
        <mxCell id="tGK0brASN7LOrKUB66ZN-113" style="edgeStyle=orthogonalEdgeStyle;rounded=0;orthogonalLoop=1;jettySize=auto;html=1;exitX=0;exitY=0;exitDx=0;exitDy=0;entryX=0.25;entryY=1;entryDx=0;entryDy=0;fontFamily=Work Sans;fontSource=https%3A%2F%2Ffonts.googleapis.com%2Fcss%3Ffamily%3DWork%2BSans;fontSize=19;fontColor=#0F0900;startArrow=classic;startFill=1;endArrow=none;endFill=0;" parent="1" source="tGK0brASN7LOrKUB66ZN-110" target="tGK0brASN7LOrKUB66ZN-62" edge="1">
          <mxGeometry relative="1" as="geometry" />
        </mxCell>
        <mxCell id="tGK0brASN7LOrKUB66ZN-115" value="Credentials" style="text;html=1;strokeColor=none;fillColor=none;align=center;verticalAlign=middle;whiteSpace=wrap;rounded=0;fontFamily=Work Sans;fontSource=https%3A%2F%2Ffonts.googleapis.com%2Fcss%3Ffamily%3DWork%2BSans;fontSize=14;fontColor=#0F0900;rotation=-180;direction=west;horizontal=0;fontStyle=0;" parent="1" vertex="1">
          <mxGeometry x="573" y="781" width="30" height="90" as="geometry" />
        </mxCell>
        <mxCell id="tGK0brASN7LOrKUB66ZN-116" value="Data" style="text;html=1;strokeColor=none;fillColor=none;align=center;verticalAlign=middle;whiteSpace=wrap;rounded=0;fontFamily=Work Sans;fontSource=https%3A%2F%2Ffonts.googleapis.com%2Fcss%3Ffamily%3DWork%2BSans;fontSize=14;fontColor=#0F0900;rotation=0;direction=west;horizontal=0;fontStyle=0;" parent="1" vertex="1">
          <mxGeometry x="492" y="736" width="30" height="50" as="geometry" />
        </mxCell>
        <mxCell id="tGK0brASN7LOrKUB66ZN-117" value="Data" style="text;html=1;strokeColor=none;fillColor=none;align=right;verticalAlign=middle;whiteSpace=wrap;rounded=0;fontFamily=Work Sans;fontSource=https%3A%2F%2Ffonts.googleapis.com%2Fcss%3Ffamily%3DWork%2BSans;fontSize=14;fontColor=#0F0900;rotation=90;direction=west;horizontal=0;fontStyle=0;" parent="1" vertex="1">
          <mxGeometry x="708" y="649" width="30" height="37" as="geometry" />
        </mxCell>
        <mxCell id="tGK0brASN7LOrKUB66ZN-119" value="Token" style="text;html=1;strokeColor=none;fillColor=none;align=center;verticalAlign=middle;whiteSpace=wrap;rounded=0;fontFamily=Work Sans;fontSource=https%3A%2F%2Ffonts.googleapis.com%2Fcss%3Ffamily%3DWork%2BSans;fontSize=14;fontColor=#0F0900;rotation=90;direction=east;horizontal=0;fontStyle=0" parent="1" vertex="1">
          <mxGeometry x="665" y="712" width="30" height="50" as="geometry" />
        </mxCell>
        <mxCell id="tGK0brASN7LOrKUB66ZN-120" value="" style="group" parent="1" vertex="1" connectable="0">
          <mxGeometry x="970" y="770" width="120" height="120" as="geometry" />
        </mxCell>
        <mxCell id="tGK0brASN7LOrKUB66ZN-121" value="" style="ellipse;whiteSpace=wrap;html=1;aspect=fixed;fontFamily=Work Sans;fontSource=https%3A%2F%2Ffonts.googleapis.com%2Fcss%3Ffamily%3DWork%2BSans;fontSize=18;align=center;verticalAlign=middle;fillColor=#d5e8d4;strokeColor=#82b366;" parent="tGK0brASN7LOrKUB66ZN-120" vertex="1">
          <mxGeometry width="120" height="120" as="geometry" />
        </mxCell>
        <mxCell id="tGK0brASN7LOrKUB66ZN-122" value="" style="sketch=0;outlineConnect=0;fontColor=#232F3E;gradientColor=none;fillColor=#232F3E;strokeColor=none;dashed=0;verticalLabelPosition=bottom;verticalAlign=top;align=center;html=1;fontSize=12;fontStyle=0;aspect=fixed;pointerEvents=1;shape=mxgraph.aws4.user;fontFamily=Work Sans;fontSource=https%3A%2F%2Ffonts.googleapis.com%2Fcss%3Ffamily%3DWork%2BSans;" parent="tGK0brASN7LOrKUB66ZN-120" vertex="1">
          <mxGeometry x="42.75" y="25.5" width="34.5" height="34.5" as="geometry" />
        </mxCell>
        <mxCell id="tGK0brASN7LOrKUB66ZN-123" value="User" style="text;html=1;strokeColor=none;fillColor=none;align=center;verticalAlign=middle;whiteSpace=wrap;rounded=0;fontFamily=Work Sans;fontSource=https%3A%2F%2Ffonts.googleapis.com%2Fcss%3Ffamily%3DWork%2BSans;fontSize=19;fontColor=#0F0900;fontStyle=1" parent="tGK0brASN7LOrKUB66ZN-120" vertex="1">
          <mxGeometry x="30" y="62.5" width="60" height="30" as="geometry" />
        </mxCell>
        <mxCell id="tGK0brASN7LOrKUB66ZN-124" style="edgeStyle=orthogonalEdgeStyle;rounded=0;orthogonalLoop=1;jettySize=auto;html=1;exitX=0;exitY=0;exitDx=0;exitDy=0;entryX=0.25;entryY=1;entryDx=0;entryDy=0;fontFamily=Work Sans;fontSource=https%3A%2F%2Ffonts.googleapis.com%2Fcss%3Ffamily%3DWork%2BSans;fontSize=19;fontColor=#0F0900;startArrow=classic;startFill=1;endArrow=none;endFill=0;" parent="1" source="tGK0brASN7LOrKUB66ZN-121" target="tGK0brASN7LOrKUB66ZN-63" edge="1">
          <mxGeometry relative="1" as="geometry">
            <Array as="points">
              <mxPoint x="880" y="788" />
              <mxPoint x="880" y="680" />
              <mxPoint x="810" y="680" />
            </Array>
          </mxGeometry>
        </mxCell>
        <mxCell id="tGK0brASN7LOrKUB66ZN-129" value="Data" style="text;html=1;strokeColor=none;fillColor=none;align=right;verticalAlign=middle;whiteSpace=wrap;rounded=0;fontFamily=Work Sans;fontSource=https%3A%2F%2Ffonts.googleapis.com%2Fcss%3Ffamily%3DWork%2BSans;fontSize=14;fontColor=#0F0900;rotation=-180;direction=west;horizontal=0;fontStyle=0;" parent="1" vertex="1">
          <mxGeometry x="1010" y="527" width="30" height="33" as="geometry" />
        </mxCell>
        <mxCell id="tGK0brASN7LOrKUB66ZN-132" value="Token" style="text;html=1;strokeColor=none;fillColor=none;align=right;verticalAlign=middle;whiteSpace=wrap;rounded=0;fontFamily=Work Sans;fontSource=https%3A%2F%2Ffonts.googleapis.com%2Fcss%3Ffamily%3DWork%2BSans;fontSize=14;fontColor=#0F0900;rotation=90;direction=east;horizontal=0;fontStyle=0" parent="1" vertex="1">
          <mxGeometry x="1000" y="589" width="30" height="60" as="geometry" />
        </mxCell>
        <mxCell id="tGK0brASN7LOrKUB66ZN-133" value="Credentials" style="text;html=1;strokeColor=none;fillColor=none;align=center;verticalAlign=middle;whiteSpace=wrap;rounded=0;fontFamily=Work Sans;fontSource=https%3A%2F%2Ffonts.googleapis.com%2Fcss%3Ffamily%3DWork%2BSans;fontSize=14;fontColor=#0F0900;rotation=90;direction=west;horizontal=0;fontStyle=0;" parent="1" vertex="1">
          <mxGeometry x="970" y="650" width="30" height="90" as="geometry" />
        </mxCell>
        <mxCell id="tGK0brASN7LOrKUB66ZN-134" value="Data" style="text;html=1;strokeColor=none;fillColor=none;align=center;verticalAlign=middle;whiteSpace=wrap;rounded=0;fontFamily=Work Sans;fontSource=https%3A%2F%2Ffonts.googleapis.com%2Fcss%3Ffamily%3DWork%2BSans;fontSize=14;fontColor=#0F0900;rotation=90;direction=west;horizontal=0;fontStyle=0;" parent="1" vertex="1">
          <mxGeometry x="889" y="749" width="30" height="50" as="geometry" />
        </mxCell>
        <mxCell id="tGK0brASN7LOrKUB66ZN-70" style="edgeStyle=orthogonalEdgeStyle;rounded=0;orthogonalLoop=1;jettySize=auto;html=1;exitX=0.5;exitY=1;exitDx=0;exitDy=0;fontFamily=Work Sans;fontSource=https%3A%2F%2Ffonts.googleapis.com%2Fcss%3Ffamily%3DWork%2BSans;fontSize=20;fontColor=#0F0900;startArrow=none;startFill=0;entryX=0.75;entryY=0;entryDx=0;entryDy=0;" parent="1" source="tGK0brASN7LOrKUB66ZN-31" target="tGK0brASN7LOrKUB66ZN-62" edge="1">
          <mxGeometry relative="1" as="geometry">
            <mxPoint x="540" y="460" as="sourcePoint" />
            <Array as="points">
              <mxPoint x="735" y="510" />
              <mxPoint x="680" y="510" />
              <mxPoint x="680" y="600" />
              <mxPoint x="613" y="600" />
            </Array>
          </mxGeometry>
        </mxCell>
        <mxCell id="tGK0brASN7LOrKUB66ZN-82" style="edgeStyle=orthogonalEdgeStyle;rounded=0;orthogonalLoop=1;jettySize=auto;html=1;exitX=0.75;exitY=1;exitDx=0;exitDy=0;entryX=0.25;entryY=0;entryDx=0;entryDy=0;fontFamily=Work Sans;fontSource=https%3A%2F%2Ffonts.googleapis.com%2Fcss%3Ffamily%3DWork%2BSans;fontSize=14;fontColor=#0F0900;startArrow=none;startFill=0;endArrow=classic;endFill=1;" parent="1" source="tGK0brASN7LOrKUB66ZN-31" target="tGK0brASN7LOrKUB66ZN-63" edge="1">
          <mxGeometry relative="1" as="geometry">
            <Array as="points">
              <mxPoint x="837" y="470" />
              <mxPoint x="810" y="470" />
            </Array>
          </mxGeometry>
        </mxCell>
        <mxCell id="tGK0brASN7LOrKUB66ZN-83" style="edgeStyle=orthogonalEdgeStyle;rounded=0;orthogonalLoop=1;jettySize=auto;html=1;exitX=0.822;exitY=1.001;exitDx=0;exitDy=0;entryX=0.75;entryY=0;entryDx=0;entryDy=0;fontFamily=Work Sans;fontSource=https%3A%2F%2Ffonts.googleapis.com%2Fcss%3Ffamily%3DWork%2BSans;fontSize=14;fontColor=#0F0900;startArrow=classic;startFill=1;endArrow=none;endFill=0;exitPerimeter=0;" parent="1" source="tGK0brASN7LOrKUB66ZN-31" target="tGK0brASN7LOrKUB66ZN-63" edge="1">
          <mxGeometry relative="1" as="geometry">
            <Array as="points">
              <mxPoint x="867" y="440" />
              <mxPoint x="913" y="440" />
            </Array>
          </mxGeometry>
        </mxCell>
        <mxCell id="tGK0brASN7LOrKUB66ZN-138" value="&lt;font style=&quot;font-size: 13px;&quot;&gt;&lt;b style=&quot;font-size: 13px;&quot;&gt;4&lt;/b&gt;&lt;/font&gt;" style="ellipse;whiteSpace=wrap;html=1;aspect=fixed;fontFamily=Work Sans;fontSource=https%3A%2F%2Ffonts.googleapis.com%2Fcss%3Ffamily%3DWork%2BSans;fontSize=13;align=center;verticalAlign=middle;fillColor=#f8cecc;strokeColor=#b85450;" parent="1" vertex="1">
          <mxGeometry x="307" y="662" width="18" height="18" as="geometry" />
        </mxCell>
        <mxCell id="tGK0brASN7LOrKUB66ZN-141" value="&lt;font style=&quot;font-size: 13px;&quot;&gt;&lt;b style=&quot;font-size: 13px;&quot;&gt;1&lt;/b&gt;&lt;/font&gt;" style="ellipse;whiteSpace=wrap;html=1;aspect=fixed;fontFamily=Work Sans;fontSource=https%3A%2F%2Ffonts.googleapis.com%2Fcss%3Ffamily%3DWork%2BSans;fontSize=13;align=center;verticalAlign=middle;fillColor=#f8cecc;strokeColor=#b85450;" parent="1" vertex="1">
          <mxGeometry x="270" y="824" width="18" height="18" as="geometry" />
        </mxCell>
        <mxCell id="tGK0brASN7LOrKUB66ZN-142" value="&lt;font style=&quot;font-size: 13px;&quot;&gt;&lt;b style=&quot;font-size: 13px;&quot;&gt;2&lt;/b&gt;&lt;/font&gt;" style="ellipse;whiteSpace=wrap;html=1;aspect=fixed;fontFamily=Work Sans;fontSource=https%3A%2F%2Ffonts.googleapis.com%2Fcss%3Ffamily%3DWork%2BSans;fontSize=13;align=center;verticalAlign=middle;fillColor=#f8cecc;strokeColor=#b85450;" parent="1" vertex="1">
          <mxGeometry x="434" y="534" width="18" height="18" as="geometry" />
        </mxCell>
        <mxCell id="tGK0brASN7LOrKUB66ZN-145" value="&lt;font style=&quot;font-size: 13px;&quot;&gt;&lt;b style=&quot;font-size: 13px;&quot;&gt;3&lt;/b&gt;&lt;/font&gt;" style="ellipse;whiteSpace=wrap;html=1;aspect=fixed;fontFamily=Work Sans;fontSource=https%3A%2F%2Ffonts.googleapis.com%2Fcss%3Ffamily%3DWork%2BSans;fontSize=13;align=center;verticalAlign=middle;fillColor=#f8cecc;strokeColor=#b85450;" parent="1" vertex="1">
          <mxGeometry x="280" y="525" width="18" height="18" as="geometry" />
        </mxCell>
        <mxCell id="tGK0brASN7LOrKUB66ZN-146" value="&lt;font style=&quot;font-size: 13px&quot;&gt;&lt;b style=&quot;font-size: 13px&quot;&gt;5&lt;/b&gt;&lt;/font&gt;" style="ellipse;whiteSpace=wrap;html=1;aspect=fixed;fontFamily=Work Sans;fontSource=https%3A%2F%2Ffonts.googleapis.com%2Fcss%3Ffamily%3DWork%2BSans;fontSize=13;align=center;verticalAlign=middle;fillColor=#f8cecc;strokeColor=#b85450;" parent="1" vertex="1">
          <mxGeometry x="188" y="537" width="18" height="18" as="geometry" />
        </mxCell>
        <mxCell id="tGK0brASN7LOrKUB66ZN-147" value="&lt;font style=&quot;font-size: 13px&quot;&gt;&lt;b style=&quot;font-size: 13px&quot;&gt;6&lt;/b&gt;&lt;/font&gt;" style="ellipse;whiteSpace=wrap;html=1;aspect=fixed;fontFamily=Work Sans;fontSource=https%3A%2F%2Ffonts.googleapis.com%2Fcss%3Ffamily%3DWork%2BSans;fontSize=13;align=center;verticalAlign=middle;fillColor=#f8cecc;strokeColor=#b85450;" parent="1" vertex="1">
          <mxGeometry x="389" y="705" width="18" height="18" as="geometry" />
        </mxCell>
        <mxCell id="tGK0brASN7LOrKUB66ZN-149" value="&lt;font style=&quot;font-size: 13px;&quot;&gt;&lt;b style=&quot;font-size: 13px;&quot;&gt;1&lt;/b&gt;&lt;/font&gt;" style="ellipse;whiteSpace=wrap;html=1;aspect=fixed;fontFamily=Work Sans;fontSource=https%3A%2F%2Ffonts.googleapis.com%2Fcss%3Ffamily%3DWork%2BSans;fontSize=13;align=center;verticalAlign=middle;fillColor=#e1d5e7;strokeColor=#9673a6;" parent="1" vertex="1">
          <mxGeometry x="579" y="765" width="18" height="18" as="geometry" />
        </mxCell>
        <mxCell id="tGK0brASN7LOrKUB66ZN-150" value="&lt;font style=&quot;font-size: 13px&quot;&gt;&lt;b style=&quot;font-size: 13px&quot;&gt;2&lt;/b&gt;&lt;/font&gt;" style="ellipse;whiteSpace=wrap;html=1;aspect=fixed;fontFamily=Work Sans;fontSource=https%3A%2F%2Ffonts.googleapis.com%2Fcss%3Ffamily%3DWork%2BSans;fontSize=13;align=center;verticalAlign=middle;fillColor=#e1d5e7;strokeColor=#9673a6;" parent="1" vertex="1">
          <mxGeometry x="603" y="487" width="18" height="18" as="geometry" />
        </mxCell>
        <mxCell id="tGK0brASN7LOrKUB66ZN-151" value="&lt;font style=&quot;font-size: 13px&quot;&gt;&lt;b style=&quot;font-size: 13px&quot;&gt;5&lt;/b&gt;&lt;/font&gt;" style="ellipse;whiteSpace=wrap;html=1;aspect=fixed;fontFamily=Work Sans;fontSource=https%3A%2F%2Ffonts.googleapis.com%2Fcss%3Ffamily%3DWork%2BSans;fontSize=13;align=center;verticalAlign=middle;fillColor=#e1d5e7;strokeColor=#9673a6;" parent="1" vertex="1">
          <mxGeometry x="740" y="431" width="18" height="18" as="geometry" />
        </mxCell>
        <mxCell id="tGK0brASN7LOrKUB66ZN-153" value="&lt;font style=&quot;font-size: 13px&quot;&gt;&lt;b style=&quot;font-size: 13px&quot;&gt;6&lt;/b&gt;&lt;/font&gt;" style="ellipse;whiteSpace=wrap;html=1;aspect=fixed;fontFamily=Work Sans;fontSource=https%3A%2F%2Ffonts.googleapis.com%2Fcss%3Ffamily%3DWork%2BSans;fontSize=13;align=center;verticalAlign=middle;fillColor=#e1d5e7;strokeColor=#9673a6;" parent="1" vertex="1">
          <mxGeometry x="637" y="726" width="18" height="18" as="geometry" />
        </mxCell>
        <mxCell id="tGK0brASN7LOrKUB66ZN-156" value="&lt;font style=&quot;font-size: 13px&quot;&gt;&lt;b style=&quot;font-size: 13px&quot;&gt;7&lt;/b&gt;&lt;/font&gt;" style="ellipse;whiteSpace=wrap;html=1;aspect=fixed;fontFamily=Work Sans;fontSource=https%3A%2F%2Ffonts.googleapis.com%2Fcss%3Ffamily%3DWork%2BSans;fontSize=13;align=center;verticalAlign=middle;fillColor=#e1d5e7;strokeColor=#9673a6;" parent="1" vertex="1">
          <mxGeometry x="685" y="653" width="18" height="18" as="geometry" />
        </mxCell>
        <mxCell id="tGK0brASN7LOrKUB66ZN-157" value="&lt;font style=&quot;font-size: 13px&quot;&gt;&lt;b style=&quot;font-size: 13px&quot;&gt;8&lt;/b&gt;&lt;/font&gt;" style="ellipse;whiteSpace=wrap;html=1;aspect=fixed;fontFamily=Work Sans;fontSource=https%3A%2F%2Ffonts.googleapis.com%2Fcss%3Ffamily%3DWork%2BSans;fontSize=13;align=center;verticalAlign=middle;fillColor=#e1d5e7;strokeColor=#9673a6;" parent="1" vertex="1">
          <mxGeometry x="477" y="758" width="18" height="18" as="geometry" />
        </mxCell>
        <mxCell id="tGK0brASN7LOrKUB66ZN-158" value="&lt;font style=&quot;font-size: 13px;&quot;&gt;&lt;b style=&quot;font-size: 13px;&quot;&gt;1&lt;/b&gt;&lt;/font&gt;" style="ellipse;whiteSpace=wrap;html=1;aspect=fixed;fontFamily=Work Sans;fontSource=https%3A%2F%2Ffonts.googleapis.com%2Fcss%3Ffamily%3DWork%2BSans;fontSize=13;align=center;verticalAlign=middle;fillColor=#d5e8d4;strokeColor=#82b366;fontColor=#006600;" parent="1" vertex="1">
          <mxGeometry x="923" y="687" width="18" height="18" as="geometry" />
        </mxCell>
        <mxCell id="tGK0brASN7LOrKUB66ZN-159" value="&lt;font style=&quot;font-size: 13px&quot;&gt;&lt;b style=&quot;font-size: 13px&quot;&gt;8&lt;/b&gt;&lt;/font&gt;" style="ellipse;whiteSpace=wrap;html=1;aspect=fixed;fontFamily=Work Sans;fontSource=https%3A%2F%2Ffonts.googleapis.com%2Fcss%3Ffamily%3DWork%2BSans;fontSize=13;align=center;verticalAlign=middle;fillColor=#d5e8d4;strokeColor=#82b366;fontColor=#006600;" parent="1" vertex="1">
          <mxGeometry x="925" y="762" width="18" height="18" as="geometry" />
        </mxCell>
        <mxCell id="tGK0brASN7LOrKUB66ZN-160" value="&lt;font style=&quot;font-size: 13px&quot;&gt;&lt;b style=&quot;font-size: 13px&quot;&gt;2&lt;/b&gt;&lt;/font&gt;" style="ellipse;whiteSpace=wrap;html=1;aspect=fixed;fontFamily=Work Sans;fontSource=https%3A%2F%2Ffonts.googleapis.com%2Fcss%3Ffamily%3DWork%2BSans;fontSize=13;align=center;verticalAlign=middle;fillColor=#d5e8d4;strokeColor=#82b366;fontColor=#006600;" parent="1" vertex="1">
          <mxGeometry x="920" y="440" width="18" height="18" as="geometry" />
        </mxCell>
        <mxCell id="tGK0brASN7LOrKUB66ZN-161" value="&lt;font style=&quot;font-size: 13px&quot;&gt;&lt;b style=&quot;font-size: 13px&quot;&gt;5&lt;/b&gt;&lt;/font&gt;" style="ellipse;whiteSpace=wrap;html=1;aspect=fixed;fontFamily=Work Sans;fontSource=https%3A%2F%2Ffonts.googleapis.com%2Fcss%3Ffamily%3DWork%2BSans;fontSize=13;align=center;verticalAlign=middle;fillColor=#d5e8d4;strokeColor=#82b366;fontColor=#006600;" parent="1" vertex="1">
          <mxGeometry x="816" y="479" width="18" height="18" as="geometry" />
        </mxCell>
        <mxCell id="tGK0brASN7LOrKUB66ZN-163" value="&lt;font style=&quot;font-size: 13px&quot;&gt;&lt;b style=&quot;font-size: 13px&quot;&gt;6&lt;/b&gt;&lt;/font&gt;" style="ellipse;whiteSpace=wrap;html=1;aspect=fixed;fontFamily=Work Sans;fontSource=https%3A%2F%2Ffonts.googleapis.com%2Fcss%3Ffamily%3DWork%2BSans;fontSize=13;align=center;verticalAlign=middle;fillColor=#d5e8d4;strokeColor=#82b366;fontColor=#006600;" parent="1" vertex="1">
          <mxGeometry x="1050" y="610" width="18" height="18" as="geometry" />
        </mxCell>
        <mxCell id="tGK0brASN7LOrKUB66ZN-164" value="&lt;font style=&quot;font-size: 13px&quot;&gt;&lt;b style=&quot;font-size: 13px&quot;&gt;7&lt;/b&gt;&lt;/font&gt;" style="ellipse;whiteSpace=wrap;html=1;aspect=fixed;fontFamily=Work Sans;fontSource=https%3A%2F%2Ffonts.googleapis.com%2Fcss%3Ffamily%3DWork%2BSans;fontSize=13;align=center;verticalAlign=middle;fillColor=#d5e8d4;strokeColor=#82b366;fontColor=#006600;" parent="1" vertex="1">
          <mxGeometry x="1017" y="563" width="18" height="18" as="geometry" />
        </mxCell>
        <mxCell id="tGK0brASN7LOrKUB66ZN-165" style="edgeStyle=orthogonalEdgeStyle;rounded=0;orthogonalLoop=1;jettySize=auto;html=1;exitX=1;exitY=0;exitDx=0;exitDy=0;entryX=0.5;entryY=1;entryDx=0;entryDy=0;fontFamily=Work Sans;fontSource=https%3A%2F%2Ffonts.googleapis.com%2Fcss%3Ffamily%3DWork%2BSans;fontSize=13;fontColor=#006600;startArrow=classic;startFill=1;endArrow=none;endFill=0;" parent="1" source="tGK0brASN7LOrKUB66ZN-110" target="tGK0brASN7LOrKUB66ZN-62" edge="1">
          <mxGeometry relative="1" as="geometry">
            <Array as="points">
              <mxPoint x="572" y="770" />
              <mxPoint x="565" y="770" />
            </Array>
          </mxGeometry>
        </mxCell>
        <mxCell id="tGK0brASN7LOrKUB66ZN-168" style="edgeStyle=orthogonalEdgeStyle;rounded=0;orthogonalLoop=1;jettySize=auto;html=1;exitX=0.25;exitY=1;exitDx=0;exitDy=0;entryX=0.25;entryY=0;entryDx=0;entryDy=0;fontFamily=Work Sans;fontSource=https%3A%2F%2Ffonts.googleapis.com%2Fcss%3Ffamily%3DWork%2BSans;fontSize=13;fontColor=#006600;startArrow=classic;startFill=1;endArrow=none;endFill=0;" parent="1" source="tGK0brASN7LOrKUB66ZN-31" target="tGK0brASN7LOrKUB66ZN-62" edge="1">
          <mxGeometry relative="1" as="geometry">
            <Array as="points">
              <mxPoint x="632" y="510" />
              <mxPoint x="518" y="510" />
            </Array>
          </mxGeometry>
        </mxCell>
        <mxCell id="liQKBqPlSNbXr3aWcino-1" value="&lt;font style=&quot;font-size: 21px&quot;&gt;&lt;b&gt;Service Initializer&lt;/b&gt;&lt;/font&gt;" style="rounded=1;whiteSpace=wrap;html=1;fontFamily=Work Sans;fontSource=https%3A%2F%2Ffonts.googleapis.com%2Fcss%3Ffamily%3DWork%2BSans;fontSize=13;fontColor=#333333;align=center;verticalAlign=middle;fillColor=#f5f5f5;strokeColor=#666666;" vertex="1" parent="1">
          <mxGeometry x="1000" y="70" width="300" height="40" as="geometry" />
        </mxCell>
        <mxCell id="liQKBqPlSNbXr3aWcino-2" style="edgeStyle=orthogonalEdgeStyle;rounded=0;orthogonalLoop=1;jettySize=auto;html=1;exitX=0;exitY=0.5;exitDx=0;exitDy=0;entryX=1;entryY=0.75;entryDx=0;entryDy=0;fontFamily=Work Sans;fontSource=https%3A%2F%2Ffonts.googleapis.com%2Fcss%3Ffamily%3DWork%2BSans;fontSize=21;fontColor=#006600;startArrow=classic;startFill=1;endArrow=none;endFill=0;" edge="1" parent="1" source="liQKBqPlSNbXr3aWcino-1" target="tGK0brASN7LOrKUB66ZN-31">
          <mxGeometry relative="1" as="geometry">
            <Array as="points">
              <mxPoint x="960" y="90" />
              <mxPoint x="960" y="369" />
            </Array>
          </mxGeometry>
        </mxCell>
        <mxCell id="liQKBqPlSNbXr3aWcino-5" value="&lt;div&gt;&lt;span&gt;{&amp;nbsp;&lt;/span&gt;&lt;span&gt;uID,&amp;nbsp;&lt;/span&gt;&lt;span&gt;Service,&amp;nbsp;&lt;/span&gt;&lt;span&gt;Token&lt;/span&gt;&lt;span&gt;}&lt;/span&gt;&lt;/div&gt;" style="text;html=1;strokeColor=none;fillColor=none;align=center;verticalAlign=middle;whiteSpace=wrap;rounded=0;fontFamily=Work Sans;fontSource=https%3A%2F%2Ffonts.googleapis.com%2Fcss%3Ffamily%3DWork%2BSans;fontSize=14;fontColor=#0F0900;rotation=-180;direction=west;horizontal=0;fontStyle=0;" vertex="1" parent="1">
          <mxGeometry x="960" y="130" width="29" height="153" as="geometry" />
        </mxCell>
        <mxCell id="liQKBqPlSNbXr3aWcino-12" value="" style="group" vertex="1" connectable="0" parent="1">
          <mxGeometry x="1000" y="150" width="120" height="150" as="geometry" />
        </mxCell>
        <mxCell id="liQKBqPlSNbXr3aWcino-10" value="" style="rounded=0;whiteSpace=wrap;html=1;fontFamily=Work Sans;fontSource=https%3A%2F%2Ffonts.googleapis.com%2Fcss%3Ffamily%3DWork%2BSans;fontSize=11;align=center;verticalAlign=middle;fillColor=#fff2cc;strokeColor=#d6b656;" vertex="1" parent="liQKBqPlSNbXr3aWcino-12">
          <mxGeometry width="120" height="150" as="geometry" />
        </mxCell>
        <mxCell id="liQKBqPlSNbXr3aWcino-7" value="&lt;font style=&quot;font-size: 11px;&quot;&gt;Create Storage&lt;/font&gt;" style="rounded=0;whiteSpace=wrap;html=1;fontFamily=Work Sans;fontSource=https%3A%2F%2Ffonts.googleapis.com%2Fcss%3Ffamily%3DWork%2BSans;fontSize=11;align=center;verticalAlign=middle;fillColor=#d5e8d4;strokeColor=#82b366;" vertex="1" parent="liQKBqPlSNbXr3aWcino-12">
          <mxGeometry x="10" y="80" width="100" height="30" as="geometry" />
        </mxCell>
        <mxCell id="liQKBqPlSNbXr3aWcino-8" value="&lt;font style=&quot;font-size: 11px&quot;&gt;Create Config&lt;/font&gt;" style="rounded=0;whiteSpace=wrap;html=1;fontFamily=Work Sans;fontSource=https%3A%2F%2Ffonts.googleapis.com%2Fcss%3Ffamily%3DWork%2BSans;fontSize=11;align=center;verticalAlign=middle;fillColor=#d5e8d4;strokeColor=#82b366;" vertex="1" parent="liQKBqPlSNbXr3aWcino-12">
          <mxGeometry x="10" y="45" width="100" height="30" as="geometry" />
        </mxCell>
        <mxCell id="liQKBqPlSNbXr3aWcino-9" value="&lt;font style=&quot;font-size: 11px&quot;&gt;Grant Access&lt;/font&gt;" style="rounded=0;whiteSpace=wrap;html=1;fontFamily=Work Sans;fontSource=https%3A%2F%2Ffonts.googleapis.com%2Fcss%3Ffamily%3DWork%2BSans;fontSize=11;align=center;verticalAlign=middle;fillColor=#d5e8d4;strokeColor=#82b366;" vertex="1" parent="liQKBqPlSNbXr3aWcino-12">
          <mxGeometry x="10" y="10" width="100" height="30" as="geometry" />
        </mxCell>
        <mxCell id="liQKBqPlSNbXr3aWcino-11" value="wunderDB&lt;br&gt;Initializer" style="text;html=1;strokeColor=none;fillColor=none;align=center;verticalAlign=middle;whiteSpace=wrap;rounded=0;fontFamily=Work Sans;fontSource=https%3A%2F%2Ffonts.googleapis.com%2Fcss%3Ffamily%3DWork%2BSans;fontSize=11;fontColor=#0A0504;" vertex="1" parent="liQKBqPlSNbXr3aWcino-12">
          <mxGeometry x="10" y="115" width="100" height="30" as="geometry" />
        </mxCell>
        <mxCell id="liQKBqPlSNbXr3aWcino-13" value="" style="group" vertex="1" connectable="0" parent="1">
          <mxGeometry x="1180" y="150" width="120" height="150" as="geometry" />
        </mxCell>
        <mxCell id="liQKBqPlSNbXr3aWcino-14" value="" style="rounded=0;whiteSpace=wrap;html=1;fontFamily=Work Sans;fontSource=https%3A%2F%2Ffonts.googleapis.com%2Fcss%3Ffamily%3DWork%2BSans;fontSize=11;align=center;verticalAlign=middle;fillColor=#fff2cc;strokeColor=#d6b656;" vertex="1" parent="liQKBqPlSNbXr3aWcino-13">
          <mxGeometry width="120" height="150" as="geometry" />
        </mxCell>
        <mxCell id="liQKBqPlSNbXr3aWcino-15" value="&lt;font style=&quot;font-size: 11px;&quot;&gt;Create Storage&lt;/font&gt;" style="rounded=0;whiteSpace=wrap;html=1;fontFamily=Work Sans;fontSource=https%3A%2F%2Ffonts.googleapis.com%2Fcss%3Ffamily%3DWork%2BSans;fontSize=11;align=center;verticalAlign=middle;fillColor=#d5e8d4;strokeColor=#82b366;" vertex="1" parent="liQKBqPlSNbXr3aWcino-13">
          <mxGeometry x="10" y="80" width="100" height="30" as="geometry" />
        </mxCell>
        <mxCell id="liQKBqPlSNbXr3aWcino-16" value="&lt;font style=&quot;font-size: 11px&quot;&gt;Create Config&lt;/font&gt;" style="rounded=0;whiteSpace=wrap;html=1;fontFamily=Work Sans;fontSource=https%3A%2F%2Ffonts.googleapis.com%2Fcss%3Ffamily%3DWork%2BSans;fontSize=11;align=center;verticalAlign=middle;fillColor=#d5e8d4;strokeColor=#82b366;" vertex="1" parent="liQKBqPlSNbXr3aWcino-13">
          <mxGeometry x="10" y="45" width="100" height="30" as="geometry" />
        </mxCell>
        <mxCell id="liQKBqPlSNbXr3aWcino-17" value="&lt;font style=&quot;font-size: 11px&quot;&gt;Grant Access&lt;/font&gt;" style="rounded=0;whiteSpace=wrap;html=1;fontFamily=Work Sans;fontSource=https%3A%2F%2Ffonts.googleapis.com%2Fcss%3Ffamily%3DWork%2BSans;fontSize=11;align=center;verticalAlign=middle;fillColor=#d5e8d4;strokeColor=#82b366;" vertex="1" parent="liQKBqPlSNbXr3aWcino-13">
          <mxGeometry x="10" y="10" width="100" height="30" as="geometry" />
        </mxCell>
        <mxCell id="liQKBqPlSNbXr3aWcino-18" value="Placeholders&lt;br&gt;Initializer" style="text;html=1;strokeColor=none;fillColor=none;align=center;verticalAlign=middle;whiteSpace=wrap;rounded=0;fontFamily=Work Sans;fontSource=https%3A%2F%2Ffonts.googleapis.com%2Fcss%3Ffamily%3DWork%2BSans;fontSize=11;fontColor=#0A0504;" vertex="1" parent="liQKBqPlSNbXr3aWcino-13">
          <mxGeometry x="10" y="115" width="100" height="30" as="geometry" />
        </mxCell>
        <mxCell id="liQKBqPlSNbXr3aWcino-19" value="" style="group" vertex="1" connectable="0" parent="1">
          <mxGeometry x="1180" y="320" width="120" height="150" as="geometry" />
        </mxCell>
        <mxCell id="liQKBqPlSNbXr3aWcino-20" value="" style="rounded=0;whiteSpace=wrap;html=1;fontFamily=Work Sans;fontSource=https%3A%2F%2Ffonts.googleapis.com%2Fcss%3Ffamily%3DWork%2BSans;fontSize=11;align=center;verticalAlign=middle;fillColor=#fff2cc;strokeColor=#d6b656;" vertex="1" parent="liQKBqPlSNbXr3aWcino-19">
          <mxGeometry width="120" height="150" as="geometry" />
        </mxCell>
        <mxCell id="liQKBqPlSNbXr3aWcino-21" value="&lt;font style=&quot;font-size: 11px;&quot;&gt;Create Storage&lt;/font&gt;" style="rounded=0;whiteSpace=wrap;html=1;fontFamily=Work Sans;fontSource=https%3A%2F%2Ffonts.googleapis.com%2Fcss%3Ffamily%3DWork%2BSans;fontSize=11;align=center;verticalAlign=middle;fillColor=#d5e8d4;strokeColor=#82b366;" vertex="1" parent="liQKBqPlSNbXr3aWcino-19">
          <mxGeometry x="10" y="80" width="100" height="30" as="geometry" />
        </mxCell>
        <mxCell id="liQKBqPlSNbXr3aWcino-22" value="&lt;font style=&quot;font-size: 11px&quot;&gt;Create Config&lt;/font&gt;" style="rounded=0;whiteSpace=wrap;html=1;fontFamily=Work Sans;fontSource=https%3A%2F%2Ffonts.googleapis.com%2Fcss%3Ffamily%3DWork%2BSans;fontSize=11;align=center;verticalAlign=middle;fillColor=#d5e8d4;strokeColor=#82b366;" vertex="1" parent="liQKBqPlSNbXr3aWcino-19">
          <mxGeometry x="10" y="45" width="100" height="30" as="geometry" />
        </mxCell>
        <mxCell id="liQKBqPlSNbXr3aWcino-23" value="&lt;font style=&quot;font-size: 11px&quot;&gt;Grant Access&lt;/font&gt;" style="rounded=0;whiteSpace=wrap;html=1;fontFamily=Work Sans;fontSource=https%3A%2F%2Ffonts.googleapis.com%2Fcss%3Ffamily%3DWork%2BSans;fontSize=11;align=center;verticalAlign=middle;fillColor=#d5e8d4;strokeColor=#82b366;" vertex="1" parent="liQKBqPlSNbXr3aWcino-19">
          <mxGeometry x="10" y="10" width="100" height="30" as="geometry" />
        </mxCell>
        <mxCell id="liQKBqPlSNbXr3aWcino-24" value="wunder Service X&lt;br&gt;Initializer" style="text;html=1;strokeColor=none;fillColor=none;align=center;verticalAlign=middle;whiteSpace=wrap;rounded=0;fontFamily=Work Sans;fontSource=https%3A%2F%2Ffonts.googleapis.com%2Fcss%3Ffamily%3DWork%2BSans;fontSize=11;fontColor=#0A0504;" vertex="1" parent="liQKBqPlSNbXr3aWcino-19">
          <mxGeometry x="10" y="115" width="100" height="30" as="geometry" />
        </mxCell>
        <mxCell id="liQKBqPlSNbXr3aWcino-25" style="edgeStyle=orthogonalEdgeStyle;rounded=0;orthogonalLoop=1;jettySize=auto;html=1;exitX=0.5;exitY=0;exitDx=0;exitDy=0;entryX=0.25;entryY=1;entryDx=0;entryDy=0;fontFamily=Work Sans;fontSource=https%3A%2F%2Ffonts.googleapis.com%2Fcss%3Ffamily%3DWork%2BSans;fontSize=11;fontColor=#0A0504;startArrow=classic;startFill=1;endArrow=none;endFill=0;" edge="1" parent="1" source="liQKBqPlSNbXr3aWcino-10" target="liQKBqPlSNbXr3aWcino-1">
          <mxGeometry relative="1" as="geometry" />
        </mxCell>
        <mxCell id="liQKBqPlSNbXr3aWcino-26" style="edgeStyle=orthogonalEdgeStyle;rounded=0;orthogonalLoop=1;jettySize=auto;html=1;exitX=0.5;exitY=0;exitDx=0;exitDy=0;entryX=0.75;entryY=1;entryDx=0;entryDy=0;fontFamily=Work Sans;fontSource=https%3A%2F%2Ffonts.googleapis.com%2Fcss%3Ffamily%3DWork%2BSans;fontSize=11;fontColor=#0A0504;startArrow=classic;startFill=1;endArrow=none;endFill=0;" edge="1" parent="1" source="liQKBqPlSNbXr3aWcino-14" target="liQKBqPlSNbXr3aWcino-1">
          <mxGeometry relative="1" as="geometry" />
        </mxCell>
        <mxCell id="liQKBqPlSNbXr3aWcino-28" style="edgeStyle=orthogonalEdgeStyle;rounded=0;orthogonalLoop=1;jettySize=auto;html=1;exitX=0;exitY=0.25;exitDx=0;exitDy=0;entryX=0.5;entryY=1;entryDx=0;entryDy=0;fontFamily=Work Sans;fontSource=https%3A%2F%2Ffonts.googleapis.com%2Fcss%3Ffamily%3DWork%2BSans;fontSize=11;fontColor=#0A0504;startArrow=classic;startFill=1;endArrow=none;endFill=0;" edge="1" parent="1" source="liQKBqPlSNbXr3aWcino-20" target="liQKBqPlSNbXr3aWcino-1">
          <mxGeometry relative="1" as="geometry" />
        </mxCell>
        <mxCell id="liQKBqPlSNbXr3aWcino-29" value="&lt;font style=&quot;font-size: 13px&quot;&gt;&lt;b style=&quot;font-size: 13px&quot;&gt;3&lt;/b&gt;&lt;/font&gt;" style="ellipse;whiteSpace=wrap;html=1;aspect=fixed;fontFamily=Work Sans;fontSource=https%3A%2F%2Ffonts.googleapis.com%2Fcss%3Ffamily%3DWork%2BSans;fontSize=13;align=center;verticalAlign=middle;" vertex="1" parent="1">
          <mxGeometry x="965" y="284" width="18" height="18" as="geometry" />
        </mxCell>
        <mxCell id="liQKBqPlSNbXr3aWcino-30" value="&lt;font style=&quot;font-size: 13px&quot;&gt;&lt;b style=&quot;font-size: 13px&quot;&gt;4&lt;/b&gt;&lt;/font&gt;" style="ellipse;whiteSpace=wrap;html=1;aspect=fixed;fontFamily=Work Sans;fontSource=https%3A%2F%2Ffonts.googleapis.com%2Fcss%3Ffamily%3DWork%2BSans;fontSize=13;align=center;verticalAlign=middle;fillColor=#d5e8d4;strokeColor=#82b366;fontColor=#006600;" vertex="1" parent="1">
          <mxGeometry x="1126" y="340" width="18" height="18" as="geometry" />
        </mxCell>
        <mxCell id="liQKBqPlSNbXr3aWcino-32" value="&lt;font style=&quot;font-size: 13px&quot;&gt;&lt;b style=&quot;font-size: 13px&quot;&gt;4&lt;/b&gt;&lt;/font&gt;" style="ellipse;whiteSpace=wrap;html=1;aspect=fixed;fontFamily=Work Sans;fontSource=https%3A%2F%2Ffonts.googleapis.com%2Fcss%3Ffamily%3DWork%2BSans;fontSize=13;align=center;verticalAlign=middle;fillColor=#f8cecc;strokeColor=#b85450;" vertex="1" parent="1">
          <mxGeometry x="1081" y="115" width="18" height="18" as="geometry" />
        </mxCell>
        <mxCell id="liQKBqPlSNbXr3aWcino-33" value="&lt;font style=&quot;font-size: 13px&quot;&gt;&lt;b style=&quot;font-size: 13px&quot;&gt;4&lt;/b&gt;&lt;/font&gt;" style="ellipse;whiteSpace=wrap;html=1;aspect=fixed;fontFamily=Work Sans;fontSource=https%3A%2F%2Ffonts.googleapis.com%2Fcss%3Ffamily%3DWork%2BSans;fontSize=13;align=center;verticalAlign=middle;fillColor=#e1d5e7;strokeColor=#9673a6;" vertex="1" parent="1">
          <mxGeometry x="1246" y="118" width="18" height="18" as="geometry" />
        </mxCell>
        <mxCell id="liQKBqPlSNbXr3aWcino-40" value="" style="group" vertex="1" connectable="0" parent="1">
          <mxGeometry x="986" y="373" width="131" height="30" as="geometry" />
        </mxCell>
        <mxCell id="liQKBqPlSNbXr3aWcino-34" value="&lt;font style=&quot;font-size: 13px&quot;&gt;&lt;b style=&quot;font-size: 13px&quot;&gt;4&lt;/b&gt;&lt;/font&gt;" style="ellipse;whiteSpace=wrap;html=1;aspect=fixed;fontFamily=Work Sans;fontSource=https%3A%2F%2Ffonts.googleapis.com%2Fcss%3Ffamily%3DWork%2BSans;fontSize=13;align=center;verticalAlign=middle;" vertex="1" parent="liQKBqPlSNbXr3aWcino-40">
          <mxGeometry y="6" width="18" height="18" as="geometry" />
        </mxCell>
        <mxCell id="liQKBqPlSNbXr3aWcino-35" value="Initiate Service" style="text;html=1;strokeColor=none;fillColor=none;align=center;verticalAlign=middle;whiteSpace=wrap;rounded=0;fontFamily=Work Sans;fontSource=https%3A%2F%2Ffonts.googleapis.com%2Fcss%3Ffamily%3DWork%2BSans;fontSize=14;fontColor=#0F0900;rotation=90;direction=west;horizontal=0;fontStyle=0;" vertex="1" parent="liQKBqPlSNbXr3aWcino-40">
          <mxGeometry x="59" y="-42" width="30" height="114" as="geometry" />
        </mxCell>
      </root>
    </mxGraphModel>
  </diagram>
</mxfile>
